Coordinates
version=1
nRows=9
nColumns=42
inDegrees=yes

Units are S.I. units (second, meters, Newtons, ...)
If the header above contains a line with 'inDegrees', this indicates whether rotational values are in degrees (yes) or radians (no).

endheader
time	pelvis_tilt	pelvis_list	pelvis_rotation	pelvis_tx	pelvis_ty	pelvis_tz	hip_flexion_r	hip_adduction_r	hip_rotation_r	knee_angle_r	knee_adduction_r	knee_angle_r_beta	ankle_angle_r	subtalar_angle_r	mtp_angle_r	hip_flexion_l	hip_adduction_l	hip_rotation_l	knee_angle_l	knee_adduction_l	knee_angle_l_beta	ankle_angle_l	subtalar_angle_l	mtp_angle_l	lumbar_extension	lumbar_bending	lumbar_rotation	arm_flex_r	arm_add_r	arm_rot_r	elbow_flex_r	pro_sup_r	wrist_flex_r	wrist_dev_r	arm_flex_l	arm_add_l	arm_rot_l	elbow_flex_l	pro_sup_l	wrist_flex_l	wrist_dev_l
      0.00000000	     12.31578525	      5.99080466	     -1.59289166	     -1.11135744	      0.88956811	     -0.32927309	     -4.53190136	     -9.55573194	     -8.95554067	     69.07427874	     -5.96937403	      1.20557359	     10.37527491	    -17.88545320	     -9.53359410	     -8.78159565	      8.74958064	    -13.08532582	     14.34051658	      1.35791365	      0.25028923	     17.00358050	     -2.77357565	     -9.53359410	    -24.79043815	     -9.44856975	     -3.21350302	     -3.58109807	     -1.80296497	    -21.23891429	     36.45018442	     90.00000001	      0.00000000	      0.00000000	     -1.35077515	     -5.17999665	    -24.86474003	     35.70200840	     90.00000001	      0.00000000	      0.00000000
      0.01000000	     12.29838436	      5.50454257	     -1.45055169	     -1.10123264	      0.89060446	     -0.33013206	     -2.84265123	     -8.94666142	     -8.72227855	     68.88791659	     -5.97341375	      1.20232096	     11.43398937	    -17.95573846	     -9.47658934	    -10.03945298	      8.23703679	    -12.88333186	     13.29312906	      1.65720991	      0.23200887	     17.23092636	     -2.34452998	     -9.47658934	    -24.84520812	     -8.82637987	     -3.51728870	     -3.73831686	     -1.87043479	    -21.50636760	     36.30243985	     90.00000001	      0.00000000	      0.00000000	     -0.98471270	     -5.14322927	    -24.38688890	     36.08952390	     90.00000001	      0.00000000	      0.00000000
      0.02000000	     12.14386111	      5.17506760	     -1.22498791	     -1.09119019	      0.89120790	     -0.33123359	     -1.04536801	     -8.56051076	     -8.68073585	     68.46760043	     -5.98491045	      1.19498506	     12.37610612	    -18.01472062	     -9.45031705	    -10.96620638	      7.95998905	    -13.12319750	     12.57392567	      1.63185041	      0.21945640	     17.36426085	     -2.11580472	     -9.45031705	    -24.75623254	     -8.32897945	     -3.98326205	     -3.93590991	     -1.93291077	    -21.65847022	     36.25719134	     90.00000001	      0.00000000	      0.00000000	     -0.62501729	     -5.09797691	    -24.07259063	     36.45460906	     90.00000001	      0.00000000	      0.00000000
      0.03000000	     12.38498625	      4.58173109	     -1.04657012	     -1.08091012	      0.89234504	     -0.33168015	      0.07699552	     -7.72124311	     -8.27731229	     67.41943264	     -5.76262382	      1.17669108	     13.12920616	    -18.05035120	     -9.32004119	    -12.85268237	      7.27373228	    -12.17716441	     10.83354632	      2.19615214	      0.18908105	     17.19552862	     -2.02148823	     -9.32004119	    -25.07780822	     -7.62579013	     -4.19901869	     -3.96855177	     -1.79373774	    -22.82215348	     36.03672007	     90.00000001	      0.00000000	      0.00000000	     -0.41445812	     -5.34957988	    -22.31798457	     37.16962956	     90.00000001	      0.00000000	      0.00000000
      0.04000000	     12.06037017	      4.38926425	     -0.77956920	     -1.07100571	      0.89234609	     -0.33264664	      1.94193635	     -7.47910604	     -8.20099379	     66.47995421	     -5.64469414	      1.16029409	     13.74559466	    -17.95040374	     -9.29530926	    -13.55125544	      7.10128021	    -12.47418352	     10.19731039	      2.14782014	      0.17797664	     17.33883167	     -1.68671057	     -9.29530926	    -24.81895344	     -7.28520620	     -4.73822851	     -4.15588227	     -1.81883192	    -22.91707029	     35.98567623	     90.00000001	      0.00000000	      0.00000000	     -0.05438264	     -5.37482031	    -22.06621819	     37.55959232	     90.00000001	      0.00000000	      0.00000000
      0.05000000	     12.08037921	      3.93758897	     -0.61730526	     -1.06099152	      0.89269446	     -0.33304380	      3.26107012	     -6.83452952	     -7.59449034	     65.11887722	     -5.13813454	      1.13653881	     14.15739214	    -18.03055290	     -9.24142005	    -15.09410588	      6.55958235	    -11.95961709	      8.58169858	      2.54140759	      0.14977890	     17.45080913	     -0.43328451	     -9.24142005	    -24.92079097	     -6.75145602	     -5.02779932	     -4.15285607	     -1.74927070	    -23.55596276	     35.64987367	     90.00000001	      0.00000000	      0.00000000	      0.23634679	     -5.55264244	    -21.03695044	     38.22754289	     90.00000001	      0.00000000	      0.00000000
      0.06000000	     11.74353414	      3.84060910	     -0.34817963	     -1.05125527	      0.89227068	     -0.33384290	      5.00251453	     -6.69539559	     -7.55918366	     63.66828424	     -4.96954100	      1.11122119	     14.51439232	    -17.84698518	     -9.21709350	    -15.73740402	      6.45933400	    -12.39850329	      8.00990077	      2.46604115	      0.13979914	     17.53543724	     -0.04938927	     -9.21709350	    -24.67432569	     -6.53479280	     -5.57294016	     -4.30427801	     -1.72566058	    -23.73330561	     35.64537983	     90.00000001	      0.00000000	      0.00000000	      0.65539892	     -5.61787816	    -20.70161976	     38.64429967	     90.00000001	      0.00000000	      0.00000000
      0.07000000	     12.02097306	      3.21850921	     -0.10980260	     -1.04087372	      0.89252238	     -0.33398454	      5.75601508	     -5.79638900	     -7.32184046	     61.62305823	     -4.63821334	      1.07552526	     14.58256602	    -17.88246370	     -9.11166734	    -17.60351203	      5.64015278	    -12.31612183	      6.37520011	      2.89978517	      0.11126823	     17.54656363	      1.63444701	     -9.11166734	    -25.01312981	     -5.81000620	     -5.79759086	     -4.22138534	     -1.50054283	    -25.18486407	     35.31994096	     90.00000001	      0.00000000	      0.00000000	      0.93182133	     -5.91821857	    -19.16256097	     39.34248536	     90.00000001	      0.00000000	      0.00000000
      0.08000000	     11.83282377	      3.07806010	      0.07163729	     -1.03093427	      0.89185213	     -0.33445186	      7.15185190	     -5.57505930	     -7.01376931	     59.72373411	     -4.21431955	      1.04237580	     14.58940469	    -17.76027104	     -9.06597468	    -18.67428179	      5.43875386	    -12.70502058	      5.25744563	      3.07632286	      0.09175974	     17.63082942	      2.91521107	     -9.06597468	    -24.89204786	     -5.59745140	     -6.22120031	     -4.23707721	     -1.42758862	    -25.58423932	     35.06035404	     90.00000001	      0.00000000	      0.00000000	      1.34316445	     -6.02325751	    -18.71087172	     39.82872841	     90.00000001	      0.00000000	      0.00000000
